<?xml version="1.0" encoding="UTF-8"?>
<!DOCTYPE svg PUBLIC "-//W3C//DTD SVG 1.1//EN" "http://www.w3.org/Graphics/SVG/1.1/DTD/svg11.dtd">
<svg xmlns="http://www.w3.org/2000/svg" version="1.1" width="501px" height="501px" style="shape-rendering:geometricPrecision; text-rendering:geometricPrecision; image-rendering:optimizeQuality; fill-rule:evenodd; clip-rule:evenodd" xmlns:xlink="http://www.w3.org/1999/xlink">
<g><path style="opacity:0.996" fill="#050505" d="M 26.5,-0.5 C 175.167,-0.5 323.833,-0.5 472.5,-0.5C 488.127,4.12749 497.46,14.4608 500.5,30.5C 500.5,176.5 500.5,322.5 500.5,468.5C 496.833,486.167 486.167,496.833 468.5,500.5C 322.5,500.5 176.5,500.5 30.5,500.5C 14.4693,497.469 4.13599,488.136 -0.5,472.5C -0.5,323.833 -0.5,175.167 -0.5,26.5C 3.5,12.5 12.5,3.5 26.5,-0.5 Z"/></g>
<g><path style="opacity:1" fill="#209f48" d="M 326.5,200.5 C 377.167,201.167 427.833,201.833 478.5,202.5C 418.122,234.439 357.955,266.773 298,299.5C 286.441,346.738 274.108,393.738 261,440.5C 246,404.5 231,368.5 216,332.5C 150.667,368.5 85.3333,404.5 20,440.5C 19.3333,439.833 19.3333,439.167 20,438.5C 61.0698,391.353 101.903,344.02 142.5,296.5C 118.809,265.148 95.1424,233.815 71.5,202.5C 124.5,201.833 177.5,201.167 230.5,200.5C 273.098,153.396 315.932,106.396 359,59.5C 348.357,106.413 337.524,153.413 326.5,200.5 Z"/></g>
<g><path style="opacity:1" fill="#151615" d="M 308.5,148.5 C 309.097,148.735 309.43,149.235 309.5,150C 301.593,181.796 293.759,213.63 286,245.5C 259.935,251.703 233.768,257.203 207.5,262C 241.375,224.296 275.041,186.462 308.5,148.5 Z"/></g>
<g><path style="opacity:1" fill="#0c2c16" d="M 230.5,200.5 C 177.5,201.167 124.5,201.833 71.5,202.5C 70.9569,202.44 70.6236,202.107 70.5,201.5C 123.829,200.5 177.163,200.167 230.5,200.5 Z"/></g>
<g><path style="opacity:1" fill="#0c2c16" d="M 326.5,200.5 C 377.834,200.333 429.168,200.5 480.5,201C 479.956,201.717 479.289,202.217 478.5,202.5C 427.833,201.833 377.167,201.167 326.5,200.5 Z"/></g>
</svg>
